<svg xmlns="http://www.w3.org/2000/svg" viewBox="0 0 320 320">
  <rect width="320" height="320" rx="56" fill="#0a58aa"/>
  <rect x="24" y="24" width="272" height="272" rx="44" fill="#fff"/>
  <circle cx="160" cy="160" r="124" fill="#0a58aa"/>
  <path
    d="M114 82A118 118 0 1 1 114 238"
    fill="none"
    stroke="#fff"
    stroke-width="52"
    stroke-linecap="round"
    stroke-linejoin="round"
  />
  <path
    d="M206 210c20 8 46 17 64 28l-18 48-90-54z"
    fill="#fff"
  />
  <circle cx="160" cy="160" r="58" fill="#fff"/>
  <path
    d="M140 116c18-2 38 2 49 12 13 12 23 13 29 8 5 9 3 19-4 22 8 6 7 18-4 22 5 14 2 22-7 27-12-5-27-9-38-4-9 4-14 11-16 20-16-5-28-17-30-28 9-4 9-12 3-22-7-12-7-23 0-33 7 6 14 6 18-3 3-7 5-15 0-21z"
    fill="#0a58aa"
    opacity="0.9"
  />
  <path
    d="M162 150c-6 0-12 5-11 11 1 7 8 11 14 9 7-2 9-11 4-15a10 10 0 0 0-7-2z"
    fill="#fff"
  />
</svg>
